<svg width="1599" height="1518" viewBox="0 0 1599 1518" fill="none" xmlns="http://www.w3.org/2000/svg">
<g filter="url(#filter0_f_102_18)">
<path d="M1339.07 1227.53C1240.95 1312.88 1135.73 1387.26 1009.85 1441.65C882.097 1495.55 733.678 1529.46 592.099 1506.9C449.101 1482.14 312.942 1400.91 234.131 1291.01C153.455 1180.63 128.261 1041.09 89.6439 907.135C51.0266 773.181 -0.567654 643.108 5.04909 515.293C12.5308 387.966 77.6703 261.194 179.972 175.124C284.585 87.8398 424.496 40.7691 566.057 17.8039C709.037 -2.96832 852.249 -1.82791 983.318 38.0102C1114.84 76.1444 1233.24 149.08 1334.64 241.23C1433.74 334.594 1512.55 444.491 1556.6 565.303C1600.21 687.82 1609.52 819.548 1567.49 934.174C1527.78 1047.59 1437.2 1142.19 1339.07 1227.53Z" fill="url(#paint0_linear_102_18)"/>
<path d="M1339.07 1227.53C1240.95 1312.88 1135.73 1387.26 1009.85 1441.65C882.097 1495.55 733.678 1529.46 592.099 1506.9C449.101 1482.14 312.942 1400.91 234.131 1291.01C153.455 1180.63 128.261 1041.09 89.6439 907.135C51.0266 773.181 -0.567654 643.108 5.04909 515.293C12.5308 387.966 77.6703 261.194 179.972 175.124C284.585 87.8398 424.496 40.7691 566.057 17.8039C709.037 -2.96832 852.249 -1.82791 983.318 38.0102C1114.84 76.1444 1233.24 149.08 1334.64 241.23C1433.74 334.594 1512.55 444.491 1556.6 565.303C1600.21 687.82 1609.52 819.548 1567.49 934.174C1527.78 1047.59 1437.2 1142.19 1339.07 1227.53Z" stroke="url(#paint1_linear_102_18)"/>
</g>
<defs>
<filter id="filter0_f_102_18" x="0.626831" y="0.461426" width="1597.98" height="1517.52" filterUnits="userSpaceOnUse" color-interpolation-filters="sRGB">
<feFlood flood-opacity="0" result="BackgroundImageFix"/>
<feBlend mode="normal" in="SourceGraphic" in2="BackgroundImageFix" result="shape"/>
<feGaussianBlur stdDeviation="2" result="effect1_foregroundBlur_102_18"/>
</filter>
<linearGradient id="paint0_linear_102_18" x1="177" y1="-174" x2="1234.46" y2="1782.66" gradientUnits="userSpaceOnUse">
<stop stop-color="#202BC9"/>
<stop offset="1"/>
</linearGradient>
<linearGradient id="paint1_linear_102_18" x1="177" y1="-174" x2="1234.46" y2="1782.66" gradientUnits="userSpaceOnUse">
<stop stop-color="#202BC9"/>
<stop offset="1"/>
</linearGradient>
</defs>
</svg>
